Coordinates
version=1
nRows=8
nColumns=63
inDegrees=yes

Units are S.I. units (second, meters, Newtons, ...)
If the header above contains a line with 'inDegrees', this indicates whether rotational values are in degrees (yes) or radians (no).

endheader
time	pelvis_tilt	pelvis_list	pelvis_rotation	pelvis_tx	pelvis_ty	pelvis_tz	hip_flexion_r	hip_adduction_r	hip_rotation_r	knee_angle_r	knee_angle_r_beta	ankle_angle_r	subtalar_angle_r	mtp_angle_r	hip_flexion_l	hip_adduction_l	hip_rotation_l	knee_angle_l	knee_angle_l_beta	ankle_angle_l	subtalar_angle_l	mtp_angle_l	L5_S1_Flex_Ext	L5_S1_Lat_Bending	L5_S1_axial_rotation	L4_L5_Flex_Ext	L4_L5_Lat_Bending	L4_L5_axial_rotation	L3_L4_Flex_Ext	L3_L4_Lat_Bending	L3_L4_axial_rotation	L2_L3_Flex_Ext	L2_L3_Lat_Bending	L2_L3_axial_rotation	L1_L2_Flex_Ext	L1_L2_Lat_Bending	L1_L2_axial_rotation	L1_T12_Flex_Ext	L1_T12_Lat_Bending	L1_T12_axial_rotation	Abs_r3	Abs_r2	Abs_r1	Abs_t1	Abs_t2	neck_flexion	neck_bending	neck_rotation	arm_flex_r	arm_add_r	arm_rot_r	elbow_flex_r	pro_sup_r	wrist_flex_r	wrist_dev_r	arm_flex_l	arm_add_l	arm_rot_l	elbow_flex_l	pro_sup_l	wrist_flex_l	wrist_dev_l
1.800000	-0.374909	3.319921	99.478140	0.264685	0.673063	0.861098	-2.327127	4.108565	-2.147323	11.034140	0.192582	27.753959	-11.764879	0.000000	-3.488337	-1.612733	-12.851299	9.719896	0.169644	32.063593	13.598583	0.000000	-0.083761	-0.281201	-0.828101	-0.155553	-0.373997	-0.879857	-0.137611	-0.683712	-0.879857	-0.095731	-0.683712	-0.724588	-0.077781	-0.573425	-0.672832	-0.047861	-0.435580	-0.621076	-0.598298	-3.181000	-4.605649	0.000000	0.000000	1.803298	4.351705	-12.932095	12.011357	-26.245498	12.180933	124.854897	88.304129	-0.050722	2.721966	0.308951	-21.971540	41.881611	30.242145	80.717035	-16.398941	-2.533887
1.816667	-0.461658	3.250317	99.243390	0.265114	0.672821	0.860738	-2.263016	4.019569	-1.512654	11.085726	0.193482	27.757548	-12.172064	0.000000	-3.553221	-1.520785	-13.267963	9.593554	0.167439	32.031659	13.930629	0.000000	-0.071716	-0.311768	-0.778341	-0.133184	-0.414652	-0.826988	-0.117823	-0.758034	-0.826988	-0.081965	-0.758034	-0.681049	-0.066596	-0.635758	-0.632402	-0.040979	-0.482929	-0.583756	-0.512263	-3.526787	-4.328901	0.000000	0.000000	2.250512	4.470522	-13.934775	10.312152	-25.551173	12.485995	122.443671	88.287748	-1.131675	2.032379	0.144828	-22.165204	41.673382	30.261704	79.178346	-16.304030	-2.822314
1.833333	-0.517396	3.176685	98.985682	0.265459	0.672478	0.860363	-2.185732	3.959142	-0.798303	11.142841	0.194479	27.727107	-12.668071	0.000000	-3.622887	-1.450938	-13.701759	9.456001	0.165038	31.998289	14.270666	0.000000	-0.061727	-0.335929	-0.724932	-0.114633	-0.446785	-0.770241	-0.101411	-0.816777	-0.770241	-0.070547	-0.816777	-0.634316	-0.057319	-0.685026	-0.589008	-0.035271	-0.520354	-0.543699	-0.440908	-3.800093	-4.031856	0.000000	0.000000	2.790255	4.521168	-14.871169	8.635709	-24.854818	12.613450	120.125972	88.301275	-1.720230	1.372064	-0.040056	-22.320255	41.399440	30.302845	77.362892	-16.205482	-3.197500
1.850000	-0.532032	3.098698	98.702019	0.265720	0.672033	0.860063	-2.072170	3.935502	-0.044193	11.239490	0.196166	27.687515	-13.205196	0.000000	-3.673481	-1.414579	-14.135320	9.341989	0.163048	31.977543	14.569045	0.000000	-0.053961	-0.351216	-0.672379	-0.100211	-0.467118	-0.714403	-0.088652	-0.853948	-0.714403	-0.061672	-0.853948	-0.588332	-0.050108	-0.716201	-0.546308	-0.030833	-0.544034	-0.504284	-0.385437	-3.973031	-3.739572	0.000000	0.000000	3.414470	4.509674	-15.613408	7.067693	-24.235482	12.689001	117.881463	88.334050	-2.004867	0.683969	-0.234158	-22.421461	41.084823	30.335748	75.381736	-16.111707	-3.672347
1.866667	-0.514964	3.009820	98.405849	0.265867	0.671498	0.859892	-1.904967	3.933977	0.697694	11.396069	0.198899	27.656050	-13.731507	0.000000	-3.684283	-1.401133	-14.542232	9.271488	0.161818	31.979975	14.800494	0.000000	-0.047026	-0.358465	-0.625063	-0.087331	-0.476759	-0.664129	-0.077259	-0.871572	-0.664129	-0.053746	-0.871572	-0.546930	-0.043668	-0.730982	-0.507864	-0.026870	-0.555262	-0.468797	-0.335900	-4.055029	-3.476412	0.000000	0.000000	4.078907	4.457515	-16.137749	5.675596	-23.760327	12.854039	115.704019	88.380739	-2.260006	-0.056099	-0.425778	-22.481414	40.757895	30.369112	73.348134	-15.996766	-4.166828
1.883333	-0.469905	2.916804	98.085901	0.265944	0.670918	0.859833	-1.703063	3.956333	1.442191	11.588290	0.202254	27.614454	-14.260293	0.000000	-3.677755	-1.409853	-14.980680	9.215591	0.160842	32.011842	15.044785	0.000000	-0.040973	-0.358360	-0.574925	-0.076091	-0.476618	-0.610858	-0.067315	-0.871316	-0.610858	-0.046828	-0.871316	-0.503059	-0.038048	-0.730767	-0.467126	-0.023412	-0.555099	-0.431194	-0.292667	-4.053836	-3.197560	0.000000	0.000000	4.736225	4.366731	-16.466188	4.432901	-23.415204	13.050310	113.607302	88.427325	-2.425745	-0.754920	-0.545442	-22.518266	40.695464	30.354932	71.002314	-15.966955	-4.839766
1.900000	-0.423042	2.804623	97.783839	0.265913	0.670292	0.859915	-1.445602	3.969775	2.118635	11.834694	0.206554	27.590685	-14.747411	0.000000	-3.625440	-1.410104	-15.354254	9.189800	0.160392	32.063685	15.210464	0.000000	-0.033964	-0.355060	-0.534832	-0.063074	-0.472230	-0.568259	-0.055799	-0.863293	-0.568259	-0.038817	-0.863293	-0.467978	-0.031539	-0.724039	-0.434551	-0.019407	-0.549988	-0.401124	-0.242601	-4.016511	-2.974573	0.000000	0.000000	5.358231	4.263841	-16.600197	3.396839	-23.202101	13.381818	111.564988	88.455651	-2.603471	-1.412210	-0.675415	-22.525429	40.478730	30.372200	68.904965	-15.872116	-5.433388
1.916667	-0.367130	2.680985	97.501101	0.265761	0.669646	0.860145	-1.140639	3.983351	2.718884	12.130379	0.211715	27.589045	-15.187721	0.000000	-3.527200	-1.412571	-15.666650	9.205877	0.160673	32.143175	15.300032	0.000000	-0.026857	-0.347689	-0.504590	-0.049877	-0.462427	-0.536127	-0.044124	-0.845372	-0.536127	-0.030695	-0.845372	-0.441516	-0.024940	-0.709008	-0.409979	-0.015346	-0.538571	-0.378442	-0.191839	-3.933130	-2.806377	0.000000	0.000000	5.914029	4.175478	-16.557905	2.589848	-23.144026	13.869241	109.557158	88.466950	-2.792142	-2.010759	-0.788490	-22.503317	40.156801	30.413011	67.095252	-15.716444	-5.907949
